<?xml version="1.0" standalone="no"?>
<!DOCTYPE svg PUBLIC "-//W3C//DTD SVG 20010904//EN"
 "http://www.w3.org/TR/2001/REC-SVG-20010904/DTD/svg10.dtd">
<svg version="1.0" xmlns="http://www.w3.org/2000/svg"
 width="410.000000pt" height="410.000000pt" viewBox="0 0 410.000000 410.000000"
 preserveAspectRatio="xMidYMid meet">
<metadata>
Created by potrace 1.11, written by Peter Selinger 2001-2013
</metadata>
<g transform="translate(0.000000,410.000000) scale(0.100000,-0.100000)"
fill="#000000" stroke="none">
<path d="M265 3306 c-72 -17 -144 -56 -171 -91 -12 -16 -33 -55 -46 -85 l-23
-55 0 -1050 c0 -810 3 -1059 12 -1091 21 -69 53 -107 118 -139 l60 -30 1835 0
1835 0 51 23 c64 29 96 63 120 127 18 48 19 97 19 1110 l0 1060 -31 66 c-37
77 -72 108 -164 141 l-65 23 -1750 2 c-1354 1 -1761 -1 -1800 -11z m345 -384
c0 -43 -25 -129 -64 -217 l-35 -80 -1 163 0 162 50 0 c48 0 50 -1 50 -28z
m760 15 c-4 -5 -1 -22 8 -37 9 -16 13 -32 10 -36 -4 -3 -47 6 -95 22 -76 25
-103 29 -198 29 -123 -1 -193 -17 -288 -68 -106 -56 -180 -148 -243 -302 -6
-15 -9 -7 -12 31 -2 39 4 65 29 120 36 79 58 162 59 217 l0 38 369 -3 c204 -2
366 -7 361 -11z m678 6 c-21 -5 -21 -8 -8 -34 10 -18 6 -19 -160 -19 l-170 0
0 -29 c0 -26 5 -30 48 -40 94 -24 92 -20 92 -200 l0 -159 -52 16 c-39 13 -58
27 -80 56 -15 21 -28 43 -28 49 0 12 -66 90 -144 169 -49 51 -56 62 -56 98 0
39 -1 40 -34 40 -31 0 -46 13 -46 39 0 5 64 6 143 4 86 -3 152 -1 167 5 14 6
96 10 185 10 88 0 152 -2 143 -5z m357 -3 c4 -6 27 -21 53 -34 l47 -24 1 23
c1 15 -6 25 -25 32 -25 11 -25 11 12 12 23 1 36 -3 32 -9 -3 -5 3 -10 14 -10
12 0 21 5 21 10 0 6 102 10 285 10 257 0 285 -2 285 -16 0 -14 -8 -16 -41 -11
-25 3 -54 0 -73 -8 -17 -7 -55 -23 -84 -35 l-53 -21 -53 31 c-61 35 -128 40
-178 14 -17 -9 -41 -14 -54 -11 -14 2 -25 -1 -28 -9 -3 -8 -17 -14 -31 -14
-14 0 -25 -4 -25 -9 0 -5 -21 -2 -47 6 -32 10 -104 17 -211 20 -155 5 -164 6
-172 27 -4 11 -6 23 -5 26 6 10 324 10 330 0z m1125 -8 l55 -18 3 -362 c2
-310 0 -362 -12 -362 -15 0 -20 12 -30 71 -10 56 -61 124 -124 163 -30 20
-112 54 -181 77 -121 40 -221 83 -221 95 0 12 46 43 72 49 36 8 52 51 44 115
-4 28 -9 57 -12 65 -9 23 57 19 111 -6 61 -29 114 -92 164 -194 38 -78 43 -85
71 -85 l30 0 0 175 0 175 -38 0 c-26 0 -45 -7 -56 -19 -17 -19 -18 -19 -74 4
-31 13 -79 26 -106 30 l-49 8 24 18 c33 26 248 26 329 1z m-727 -70 l44 -28
-38 -42 c-65 -73 -84 -168 -55 -267 14 -43 13 -48 -3 -52 -9 -2 -32 -31 -50
-64 -21 -38 -43 -64 -60 -71 -64 -25 -68 -29 -63 -54 3 -16 -1 -26 -12 -30
-12 -4 -13 -10 -6 -24 6 -10 10 -30 10 -43 0 -14 11 -58 25 -99 29 -86 31
-126 8 -190 -20 -55 -29 -60 -38 -19 -11 51 -132 201 -161 201 -29 0 -22 -22
20 -60 56 -52 105 -127 113 -174 5 -30 8 -34 20 -24 11 9 19 9 33 0 17 -10 21
-5 39 50 27 81 26 136 -4 231 -26 79 -31 117 -17 117 4 0 24 -11 44 -25 20
-14 41 -25 46 -25 18 0 22 -31 22 -156 l0 -124 38 0 c26 0 45 7 57 20 23 26
23 26 98 -10 35 -17 69 -30 75 -30 6 0 15 -6 19 -14 10 -17 103 -34 263 -48
166 -14 226 -13 278 5 l42 15 0 -309 0 -309 -104 0 c-104 0 -105 0 -125 29
-12 16 -21 32 -21 35 0 3 22 6 49 6 51 0 61 9 61 51 0 26 -15 24 -34 -7 -14
-21 -24 -25 -54 -22 -35 3 -37 5 -40 41 -3 34 -1 37 22 37 16 0 27 -7 31 -20
12 -37 25 -21 25 30 0 48 -14 67 -26 35 -4 -8 -17 -15 -30 -15 -21 0 -24 5
-24 35 0 33 2 35 35 35 24 0 39 -6 47 -20 19 -29 28 -24 28 15 l0 35 -100 0
c-62 0 -100 -4 -100 -10 0 -6 7 -13 15 -16 10 -4 15 -20 15 -45 l0 -39 -78 88
c-44 48 -98 104 -120 125 -41 36 -72 48 -72 27 0 -5 -10 -10 -23 -10 -20 0
-25 -8 -35 -60 -11 -53 -15 -60 -37 -60 -31 0 -43 -20 -16 -27 19 -5 21 -12
21 -93 0 -82 -1 -88 -22 -96 -17 -6 -8 -9 37 -11 62 -4 75 -13 75 -50 l0 -23
-424 0 -424 0 0 80 c0 44 -3 84 -7 90 -8 12 48 95 70 104 27 10 6 26 -36 26
-40 0 -48 -7 -28 -27 8 -8 8 -17 -1 -32 -19 -37 -31 -13 -25 52 17 186 47 307
76 307 6 0 41 -21 77 -46 73 -51 71 -51 214 -17 71 17 75 19 63 36 -7 10 -16
14 -19 9 -3 -6 -23 -12 -43 -14 -21 -3 -58 -11 -83 -18 l-45 -13 -75 51 c-65
44 -77 49 -87 36 -17 -23 -57 -14 -61 14 -4 28 -39 29 -142 2 -93 -24 -291
-27 -394 -6 -47 10 -101 13 -175 9 -91 -4 -115 -10 -169 -35 -59 -28 -69 -30
-125 -23 -108 14 -188 11 -202 -8 -10 -14 -6 -23 29 -60 23 -24 61 -84 86
-133 l45 -89 -58 0 c-54 0 -61 -3 -88 -33 -24 -27 -29 -41 -29 -83 0 -42 5
-55 28 -79 31 -31 86 -46 128 -36 41 11 84 59 84 96 0 18 4 29 10 25 5 -3 10
-17 10 -31 0 -16 6 -24 18 -24 10 0 35 -23 56 -50 21 -28 48 -57 60 -65 18
-13 -27 -15 -387 -15 l-407 0 0 210 c0 116 4 210 8 210 5 0 32 22 59 49 50 49
59 53 153 65 83 11 130 27 130 46 0 10 10 26 22 34 18 13 20 19 11 39 l-11 23
62 -13 c125 -26 291 -9 461 48 143 48 135 36 135 194 0 127 1 135 23 150 12 8
39 18 60 22 33 5 37 9 37 34 l0 29 -260 0 -260 0 0 -28 c0 -27 4 -30 55 -41
88 -20 95 -33 95 -172 l0 -117 -47 -23 c-63 -31 -159 -37 -218 -15 -119 46
-186 205 -186 446 -1 295 103 450 295 438 116 -7 201 -86 265 -243 26 -66 30
-70 63 -73 l34 -3 -3 118 -4 118 78 -80 c45 -46 90 -104 107 -137 29 -58 47
-71 131 -100 l40 -14 3 -214 c3 -247 4 -244 -89 -256 -46 -6 -49 -8 -49 -35
l0 -29 214 0 c118 0 226 -4 240 -10 17 -6 26 -6 26 0 0 6 16 10 35 10 32 0 35
3 35 29 0 16 -5 31 -11 33 -11 4 67 108 82 108 5 0 8 10 8 23 -1 12 1 29 5 38
5 11 -6 22 -42 42 -47 26 -50 26 -55 8 -3 -14 3 -23 24 -31 36 -15 59 -41 42
-47 -7 -3 -35 -33 -64 -69 -56 -71 -76 -78 -114 -39 -23 22 -25 32 -25 116 l0
92 34 -6 c25 -4 37 -1 50 15 10 11 23 17 31 15 8 -4 15 5 19 24 10 52 34 77
79 84 23 4 58 11 78 17 35 10 39 9 67 -23 l29 -33 34 17 c33 16 33 17 8 17
-17 0 -33 9 -43 24 -15 24 -14 25 32 58 64 47 100 102 114 176 17 90 -1 160
-56 217 -23 24 -40 49 -38 54 2 6 22 11 45 11 23 0 60 9 82 20 47 22 70 19
128 -18z m295 -71 c25 -80 19 -93 -62 -136 -39 -21 -47 -22 -51 -10 -3 8 -7
22 -10 31 -10 31 15 92 50 123 20 17 42 31 49 31 7 0 18 -17 24 -39z m-846 17
c52 -16 93 -64 107 -128 16 -76 13 -102 -17 -138 l-28 -34 -64 68 c-60 64
-130 187 -130 228 0 20 73 22 132 4z m-16 -272 c64 -62 67 -67 55 -90 -17 -31
-53 -47 -123 -53 l-58 -6 0 164 1 164 29 -56 c16 -31 59 -86 96 -123z m-1701
-85 c-6 -23 -2 -49 27 -208 20 -108 108 -239 201 -298 37 -24 116 -111 106
-118 -50 -35 -58 -38 -222 -68 -56 -11 -71 -18 -84 -39 -8 -15 -24 -32 -34
-38 -19 -12 -19 -1 -19 425 1 400 2 435 16 403 8 -19 12 -46 9 -59z m1815 53
c0 -13 -21 -44 -30 -44 -11 0 -14 33 -3 43 8 8 33 9 33 1z m557 -157 c26 -13
104 -43 173 -66 69 -22 141 -51 160 -63 l35 -23 -30 -3 c-16 -1 -50 -11 -75
-21 -25 -11 -66 -28 -92 -38 -35 -14 -45 -22 -38 -33 9 -14 45 -4 148 42 25
11 59 18 80 16 30 -3 37 -8 44 -33 9 -34 -4 -89 -28 -124 -36 -51 -162 -78
-241 -51 -29 10 -29 12 -23 60 8 62 -14 71 -24 10 -3 -22 -10 -40 -14 -40 -4
0 -27 19 -52 42 l-45 43 45 5 c30 3 45 10 46 20 1 12 -11 15 -51 15 -63 0 -78
11 -116 87 -27 54 -32 58 -64 58 -31 0 -35 -3 -35 -25 l0 -25 -50 32 c-27 18
-50 38 -50 44 0 6 17 18 39 26 31 12 45 27 71 76 18 34 40 63 49 64 9 2 33
-13 53 -34 21 -20 59 -48 85 -61z m-675 -39 c-6 -7 -14 -29 -19 -48 -9 -33
-12 -35 -56 -38 l-47 -3 0 50 0 51 66 0 c52 0 64 -3 56 -12z m1356 -295 l-3
-148 -40 -20 c-34 -17 -56 -20 -145 -17 -128 4 -326 29 -243 31 116 2 232 44
303 110 43 39 90 121 90 156 0 25 8 35 27 35 11 0 13 -28 11 -147z m-1459
-190 c6 -11 5 -26 -1 -42 -17 -43 -38 -163 -38 -218 l0 -51 -65 -7 c-36 -4
-65 -11 -65 -16 0 -5 6 -9 14 -9 22 0 76 -102 76 -144 0 -25 -4 -36 -15 -36
-8 0 -15 -4 -15 -10 0 -5 20 -10 45 -10 45 0 45 0 45 -35 l0 -35 -366 0 -365
0 -35 26 c-19 15 -34 30 -34 35 0 5 26 9 58 10 55 0 56 1 35 16 -15 10 -23 26
-23 43 0 24 5 28 38 33 56 10 82 32 82 72 0 45 -22 56 -127 63 -60 3 -83 2
-83 -7 0 -6 7 -14 15 -17 12 -5 15 -25 15 -95 0 -80 -2 -89 -18 -89 -11 0 -27
9 -37 20 -10 11 -13 20 -7 20 7 0 12 11 12 24 0 21 -6 25 -32 28 -28 3 -40 13
-81 73 -26 39 -68 111 -93 160 -26 50 -55 101 -65 114 -10 13 -17 27 -14 31 2
4 58 5 124 2 115 -4 122 -4 170 22 68 35 216 46 306 22 79 -21 284 -21 385 0
41 8 77 17 79 20 12 12 71 2 80 -13z m917 -243 c73 -60 75 -70 14 -70 -48 0
-67 -14 -35 -26 12 -5 15 -25 15 -96 0 -79 -2 -89 -17 -86 -19 4 -63 107 -63
149 0 19 6 30 20 34 24 8 17 25 -11 25 -10 0 -19 3 -19 6 0 17 34 104 40 104
4 0 29 -18 56 -40z m-1982 -112 c24 -34 21 -133 -4 -158 -11 -11 -24 -20 -30
-20 -5 0 -19 9 -30 20 -15 15 -20 33 -20 78 0 90 47 134 84 80z m2174 -104
c25 -38 29 -64 7 -64 -8 0 -15 -4 -15 -10 0 -5 13 -10 29 -10 21 0 36 -8 50
-29 12 -16 21 -32 21 -35 0 -3 -69 -6 -154 -6 l-154 0 -4 30 c-3 17 -2 32 0
35 3 3 50 5 104 5 l98 0 0 40 c0 22 -2 40 -5 40 -2 0 -12 -14 -20 -31 -14 -26
-21 -30 -53 -27 l-37 3 -3 87 c-2 76 -1 87 15 90 18 4 75 -52 121 -118z
m-1808 97 c12 -24 4 -48 -21 -61 -27 -15 -29 -13 -29 35 0 38 3 45 20 45 10 0
24 -9 30 -19z m650 4 c0 -8 -2 -15 -4 -15 -2 0 -6 7 -10 15 -3 8 -1 15 4 15 6
0 10 -7 10 -15z"/>
<path d="M2875 1839 c-22 -10 -62 -19 -90 -19 -27 0 -71 -7 -98 -15 -26 -8
-53 -12 -60 -10 -6 3 -20 -6 -29 -19 l-17 -24 60 -26 c41 -18 78 -26 117 -26
31 -1 82 -9 112 -20 40 -14 57 -15 62 -7 4 7 4 15 0 18 -15 14 -122 39 -169
39 -26 1 -59 7 -73 14 l-24 14 34 14 c19 8 64 18 100 21 77 8 150 34 150 53 0
19 -27 16 -75 -7z"/>
<path d="M2965 1768 c-1 -24 -5 -51 -9 -60 -6 -14 -4 -18 13 -18 19 0 21 6 21
60 0 41 -4 60 -12 60 -8 0 -13 -15 -13 -42z"/>
<path d="M700 1488 c-66 -45 -67 -151 -1 -195 37 -25 75 -29 134 -12 33 9 37
13 37 43 0 21 6 36 15 40 34 13 12 26 -45 26 -57 0 -79 -13 -45 -26 24 -9 19
-61 -6 -67 -11 -3 -27 -3 -34 -1 -40 16 -46 154 -9 181 28 21 56 12 79 -24 27
-43 35 -41 35 10 l0 42 -63 3 c-52 3 -68 -1 -97 -20z"/>
<path d="M2372 1498 c-27 -13 -38 -51 -26 -87 7 -19 23 -31 62 -45 42 -15 52
-23 52 -41 0 -46 -64 -39 -96 10 -23 35 -34 31 -34 -14 l0 -39 60 -7 c78 -9
123 14 128 64 4 41 -16 64 -67 80 -51 15 -65 32 -47 56 12 17 18 18 40 7 14
-6 31 -23 38 -37 17 -37 28 -30 28 18 l0 42 -58 2 c-31 1 -67 -3 -80 -9z"/>
<path d="M2540 1502 c0 -5 7 -15 15 -22 11 -9 15 -33 15 -90 0 -69 -2 -79 -22
-93 -22 -15 -20 -16 37 -16 57 0 59 1 38 16 -20 13 -23 24 -22 82 l0 66 30
-82 c18 -47 37 -83 44 -83 8 0 28 38 47 88 l33 87 3 -70 c3 -62 1 -71 -20 -87
-23 -17 -22 -18 45 -18 38 0 67 4 67 10 0 6 -7 10 -15 10 -12 0 -15 17 -15 89
0 70 3 90 15 95 34 13 13 27 -36 24 l-51 -3 -26 -69 -25 -69 -27 69 -28 69
-51 3 c-28 2 -51 -1 -51 -6z"/>
<path d="M2212 1368 c3 -20 10 -23 51 -26 45 -3 47 -2 47 22 0 24 -3 26 -51
26 -47 0 -50 -2 -47 -22z"/>
<path d="M1515 1501 c-3 -6 4 -15 15 -21 17 -9 20 -21 20 -89 0 -70 -2 -80
-22 -94 -21 -15 -12 -16 130 -16 95 -1 152 3 152 9 0 6 -7 10 -15 10 -16 0
-19 9 -9 34 4 11 19 16 44 16 30 0 40 -5 45 -21 5 -14 1 -25 -12 -34 -16 -13
-10 -14 50 -15 38 0 67 4 67 10 0 6 -6 10 -14 10 -13 0 -23 20 -76 153 -34 82
-49 77 -95 -35 -21 -51 -44 -100 -52 -108 -11 -12 -13 -10 -13 18 0 40 -10 41
-32 2 -14 -24 -24 -30 -53 -30 l-35 0 0 89 c0 70 3 90 15 95 8 3 15 10 15 16
0 13 -117 13 -125 1z m335 -118 c0 -7 -11 -13 -24 -13 -24 0 -24 2 -14 32 10
29 12 30 25 13 7 -11 13 -25 13 -32z"/>
</g>
</svg>
